PathFileType	4	(X/Y/Z)	s07c0202.trc
DataRate	CameraRate	NumFrames	NumMarkers	Units	OrigDataRate	OrigDataStartFrame	OrigNumFrames
200	200	4	48	mm	200	0	2000
Frame#	Time	racr			lacr			c7			jug			rlel			rdr			llel			ldr			s2			lic			ric			lasi			rasi			rpsi			lpsi			rgt			lgt			rth1			rth2			rth3			rth4			rlfc			rmfc			rsh1			rsh2			rsh3			rsh4			rlmal			rcal			rtoe			rmt5			lth1			lth2			lth4			lth3			llfc			lmfc			lsh1			lsh2			lsh3			lsh4			llmal			lcal			ltoe			lmt5			SBIKE			LBIKE			RBIKE			
		X1	Y1	Z1	X2	Y2	Z2	X3	Y3	Z3	X4	Y4	Z4	X5	Y5	Z5	X6	Y6	Z6	X7	Y7	Z7	X8	Y8	Z8	X9	Y9	Z9	X10	Y10	Z10	X11	Y11	Z11	X12	Y12	Z12	X13	Y13	Z13	X14	Y14	Z14	X15	Y15	Z15	X16	Y16	Z16	X17	Y17	Z17	X18	Y18	Z18	X19	Y19	Z19	X20	Y20	Z20	X21	Y21	Z21	X22	Y22	Z22	X23	Y23	Z23	X24	Y24	Z24	X25	Y25	Z25	X26	Y26	Z26	X27	Y27	Z27	X28	Y28	Z28	X29	Y29	Z29	X30	Y30	Z30	X31	Y31	Z31	X32	Y32	Z32	X33	Y33	Z33	X34	Y34	Z34	X35	Y35	Z35	X36	Y36	Z36	X37	Y37	Z37	X38	Y38	Z38	X39	Y39	Z39	X40	Y40	Z40	X41	Y41	Z41	X42	Y42	Z42	X43	Y43	Z43	X44	Y44	Z44	X45	Y45	Z45	X46	Y46	Z46	X47	Y47	Z47	X48	Y48	Z48	
0	0.0000	417.442650	1468.653312	-90.394222	405.304603	1454.247445	-364.012372	394.259642	1493.765260	-236.767010	361.258494	1355.462592	-232.259036	494.931678	1151.408810	30.679676	692.789999	938.841204	-53.185159	498.736316	1152.045573	-487.717443	688.862988	926.670618	-450.402840	-143.173053	1195.759188	-251.060914	20.674973	1253.359084	-390.647905	22.334854	1243.719183	-95.497994	56.020057	1174.116650	-363.591103	38.404836	1188.431453	-114.858561	-119.993576	1235.723195	-198.116221	-103.775917	1245.050723	-306.013568	-29.675440	1122.103657	-53.392364	-31.512535	1092.145904	-419.331864	113.558843	1068.214385	-53.135174	199.772379	1057.098674	-66.333091	270.950743	1009.825733	-63.855919	209.657252	1087.079706	-85.953558	390.868227	932.720165	-101.218745	385.180987	916.920447	-207.059352	342.596442	797.641665	-75.467834	331.855674	709.960869	-93.504830	283.239212	638.756894	-87.874613	348.308556	707.803773	-129.521053	227.893332	515.165646	-88.014927	156.640707	484.933664	-115.756881	438.964976	418.106569	-131.149511	358.034099	398.118607	-59.699570	34.302703	987.942732	-425.698252	105.881642	937.893742	-429.490022	134.185772	959.238668	-420.766202	143.617176	855.606923	-423.867772	239.692506	703.670786	-390.355640	225.923456	687.825451	-293.423458	145.929343	585.573640	-412.658976	108.403101	510.652979	-392.293725	36.726800	456.756298	-402.154706	110.781119	512.214653	-350.894136	-54.952539	359.042266	-400.621995	-134.947667	341.868838	-366.559383	133.407792	235.010530	-357.985282	50.268805	235.552479	-422.924003	-263.386366	968.008741	-237.839384	-83.304221	79.212629	-437.377203	-82.913352	78.713516	-39.698844	
1	0.0050	417.455219	1468.664768	-90.335058	405.319366	1454.226099	-363.961868	394.297738	1493.721641	-236.697857	361.272325	1355.450184	-232.181501	494.907045	1151.375420	30.746458	692.770281	938.863749	-53.188982	498.719498	1152.048555	-487.712235	688.871490	926.672814	-450.433472	-143.113617	1195.757188	-251.089980	20.750474	1253.342321	-390.639620	22.316587	1243.726933	-95.479806	56.070792	1174.089262	-363.571170	38.411865	1188.443273	-114.848484	-119.959915	1235.710812	-198.133838	-103.707561	1245.041112	-306.046926	-29.694069	1122.063414	-53.400519	-31.443601	1092.164059	-419.359588	113.547226	1068.143844	-53.097034	199.764673	1057.047726	-66.301011	270.899448	1009.758775	-63.819596	209.655625	1086.994532	-85.926114	390.803688	932.543878	-101.177710	385.138475	916.841110	-207.082877	342.533204	797.537158	-75.450978	331.824942	709.843512	-93.491201	283.226290	638.640679	-87.881123	348.280996	707.698654	-129.528793	227.891836	515.006725	-88.031747	156.675962	484.791764	-115.774511	438.990518	418.029418	-131.131426	358.071403	398.049844	-59.700199	34.378759	987.962191	-425.705541	105.950364	937.889856	-429.494080	134.257982	959.230880	-420.788107	143.678644	855.589686	-423.888632	239.726320	703.660198	-390.382861	225.973542	687.815556	-293.424171	145.919105	585.604581	-412.683740	108.373545	510.687941	-392.300886	36.698408	456.789413	-402.221481	110.769514	512.215096	-350.910788	-55.040328	359.127107	-400.612555	-135.021413	341.926226	-366.576193	133.348942	235.134134	-357.998253	50.220974	235.648748	-422.914732	-263.382732	968.005926	-237.833970	-83.294101	79.229013	-437.362311	-82.919088	78.798747	-39.691707	
2	0.0100	417.454900	1468.644799	-90.256788	405.373474	1454.231820	-363.890343	394.254752	1493.800738	-236.515322	361.290483	1355.422599	-232.156801	494.903544	1151.365801	30.773319	692.760047	938.884720	-53.191488	498.720470	1152.041752	-487.708918	688.873915	926.685299	-450.423994	-143.089120	1195.750869	-251.099302	20.838399	1253.315937	-390.629136	22.311560	1243.737064	-95.479911	56.121064	1174.057202	-363.542331	38.415764	1188.431449	-114.834599	-119.921062	1235.697859	-198.159536	-103.653923	1245.024895	-306.045103	-29.704150	1122.022533	-53.411473	-31.372916	1092.152089	-419.348123	113.544606	1068.078245	-53.089502	199.737627	1056.970340	-66.275942	270.869520	1009.697494	-63.783169	209.631674	1086.924912	-85.905678	390.762596	932.423752	-101.142079	385.133755	916.709695	-207.065180	342.508106	797.416203	-75.431036	331.812787	709.746525	-93.460922	283.239350	638.482368	-87.867472	348.288443	707.592525	-129.515460	227.897752	514.880801	-88.050911	156.725305	484.661760	-115.801793	439.052390	417.944301	-131.119641	358.121260	397.945068	-59.685875	34.435826	987.951542	-425.726665	105.999651	937.863166	-429.508040	134.305136	959.212029	-420.805528	143.735047	855.563312	-423.895364	239.767312	703.636957	-390.369302	226.015943	687.794696	-293.441061	145.934163	585.607378	-412.672584	108.346692	510.705124	-392.303826	36.635937	456.844489	-402.207026	110.715302	512.206540	-350.911956	-55.124989	359.201547	-400.608742	-135.105656	342.000434	-366.589540	133.288434	235.261775	-358.005741	50.162243	235.758254	-422.915294	-263.369242	968.021784	-237.841171	-83.288482	79.232067	-437.352947	-82.917014	78.775366	-39.692882	
3	0.0150	417.457780	1468.639875	-90.187706	404.044829	1454.738338	-365.300540	394.429784	1492.634501	-230.864982	361.305864	1355.440839	-232.127262	494.589423	1152.043152	31.357159	692.761531	938.874417	-53.190295	498.712162	1152.051792	-487.705913	687.652460	924.295790	-443.975204	-143.045865	1195.741082	-251.113693	19.622814	1252.379834	-388.525517	22.066103	1244.296119	-95.677789	56.170937	1174.059613	-363.521002	38.426012	1188.447496	-114.816761	-119.904515	1235.682110	-198.184086	-103.433353	1245.253255	-306.646168	-29.729095	1121.992865	-53.411939	-31.308622	1092.136012	-419.320146	113.477617	1067.980532	-53.070772	199.726521	1056.911485	-66.253243	270.838221	1009.629815	-63.751823	209.630820	1086.830674	-85.905598	390.821775	932.227180	-101.091038	385.104294	916.632061	-207.064882	342.513604	797.298586	-75.419084	331.469824	709.432862	-93.741832	283.326639	638.232936	-87.822870	348.429877	707.279027	-129.542021	227.450914	515.694943	-86.599835	156.788027	484.545597	-115.797014	439.116362	417.769640	-131.044231	358.291192	397.741832	-59.700059	34.489728	987.939979	-425.723306	106.403014	936.726797	-428.594757	134.357077	959.256424	-420.900920	143.567221	855.857982	-423.603400	239.805447	703.612336	-390.377869	226.114997	687.788971	-293.403323	145.927698	585.602777	-412.674898	108.458180	510.406045	-392.432500	36.393319	457.152706	-402.195965	111.114013	512.022963	-350.666279	-55.229005	359.293686	-400.598970	-135.201310	342.051322	-366.584904	133.238825	235.371419	-358.003197	50.112590	235.867480	-422.904320	-263.481526	968.041641	-238.223387	-83.288667	79.219155	-437.361666	-82.918799	78.770344	-39.695392	
